<svg xmlns="http://www.w3.org/2000/svg" xmlns:xlink="http://www.w3.org/1999/xlink" width="62" height="61" viewBox="0 0 62 61">
    <defs>
        <circle id="b" cx="18" cy="18" r="18"/>
        <filter id="a" width="211.1%" height="211.1%" x="-55.6%" y="-52.8%" filterUnits="objectBoundingBox">
            <feMorphology in="SourceAlpha" operator="dilate" radius=".5" result="shadowSpreadOuter1"/>
            <feOffset dy="1" in="shadowSpreadOuter1" result="shadowOffsetOuter1"/>
            <feGaussianBlur in="shadowOffsetOuter1" result="shadowBlurOuter1" stdDeviation="6"/>
            <feColorMatrix in="shadowBlurOuter1" values="0 0 0 0 0.196078431 0 0 0 0 0.270588235 0 0 0 0 0.298039216 0 0 0 0.101316652 0"/>
        </filter>
    </defs>
    <g fill="none" fill-rule="evenodd">
        <g transform="translate(13 11.5)">
            <use fill="#000" filter="url(#a)" xlink:href="#b"/>
            <use fill="#FFF" xlink:href="#b"/>
        </g>
        <path fill="#FF5C62" fill-rule="nonzero" d="M36.328 19.504l-2.57-.004c-2.888 0-4.754 1.914-4.754 4.878v2.248H26.42a.404.404 0 0 0-.404.405v3.258c0 .223.18.404.404.404h2.584v8.222c0 .223.18.404.404.404h3.372a.404.404 0 0 0 .404-.404v-8.222h3.021c.224 0 .404-.18.404-.404l.002-3.258a.405.405 0 0 0-.405-.405h-3.022V24.72c0-.916.218-1.381 1.412-1.381l1.731-.001a.404.404 0 0 0 .404-.404v-3.026a.404.404 0 0 0-.403-.404z"/>
        <path d="M19 17.5h24v24H19z"/>
    </g>
</svg>
