<svg xmlns="http://www.w3.org/2000/svg" width="150" height="30" viewBox="0 0 150 30">
    <g fill="#32454C" fill-rule="evenodd">
        <path d="M44.823 8.873h2.806v12.465h-2.806V16.05h-4.714v5.288h-2.806V8.873h2.806v4.766h4.714zM54.236 15.018c0 .613.074 1.166.223 1.66a3.8 3.8 0 0 0 .644 1.273c.28.355.623.628 1.028.82.405.194.87.29 1.395.29.513 0 .975-.096 1.386-.29.411-.192.757-.465 1.037-.82.28-.355.495-.78.644-1.273a5.734 5.734 0 0 0 .224-1.66 5.83 5.83 0 0 0-.224-1.67 3.803 3.803 0 0 0-.644-1.282 2.829 2.829 0 0 0-1.037-.821 3.232 3.232 0 0 0-1.386-.289c-.525 0-.99.1-1.395.298a2.936 2.936 0 0 0-1.028.83c-.28.355-.495.782-.644 1.282-.15.5-.223 1.05-.223 1.652zm9.46 0c0 1.07-.158 2.012-.474 2.824-.316.813-.748 1.492-1.297 2.04a5.31 5.31 0 0 1-1.958 1.236 7.046 7.046 0 0 1-2.44.416 6.866 6.866 0 0 1-2.397-.416 5.493 5.493 0 0 1-1.967-1.236c-.561-.548-1.002-1.227-1.324-2.04-.322-.812-.483-1.754-.483-2.824 0-1.072.167-2.013.501-2.825.334-.813.784-1.496 1.35-2.05a5.541 5.541 0 0 1 1.968-1.245 6.689 6.689 0 0 1 2.351-.415 6.87 6.87 0 0 1 2.397.415c.75.277 1.406.692 1.967 1.246.56.553 1.001 1.236 1.323 2.049.322.812.483 1.753.483 2.825zM70.711 19.133c.393 0 .718-.033.975-.1.256-.065.462-.155.616-.27a.904.904 0 0 0 .323-.406c.06-.156.09-.331.09-.524 0-.409-.192-.749-.573-1.02-.382-.27-1.038-.562-1.967-.875-.406-.144-.811-.31-1.217-.496a4.464 4.464 0 0 1-1.09-.704 3.361 3.361 0 0 1-.787-1.03c-.203-.402-.304-.893-.304-1.47 0-.578.107-1.099.322-1.562.214-.463.518-.857.912-1.182.393-.325.87-.574 1.43-.75.56-.174 1.192-.261 1.896-.261.834 0 1.556.09 2.164.27.608.181 1.109.38 1.502.597l-.805 2.22c-.346-.18-.73-.34-1.153-.479-.423-.138-.933-.208-1.529-.208-.668 0-1.148.094-1.44.28-.292.187-.438.473-.438.858 0 .229.054.422.161.578.107.156.26.297.456.424.197.126.423.24.68.343.256.102.539.207.85.315.643.241 1.203.479 1.68.714a4.5 4.5 0 0 1 1.19.82c.315.314.55.68.706 1.102.155.422.232.933.232 1.534 0 1.167-.405 2.073-1.216 2.717-.81.644-2.033.966-3.666.966-.548 0-1.043-.033-1.484-.1a9.606 9.606 0 0 1-1.172-.243 6.688 6.688 0 0 1-.876-.307 6.606 6.606 0 0 1-.617-.307l.787-2.238c.37.205.825.388 1.368.55.542.163 1.207.244 1.994.244M87.884 8.772v2.4h-3.738v10.109h-2.79V11.173H77.62V8.772zM90.983 21.281h2.79V8.772h-2.79zM106.26 21.28a63.02 63.02 0 0 0-2.592-4.241 43.192 43.192 0 0 0-2.969-3.953v8.195h-2.754V8.772h2.27c.394.397.83.884 1.306 1.462.477.578.963 1.195 1.458 1.85a64.45 64.45 0 0 1 1.475 2.04c.489.704.948 1.38 1.377 2.03V8.772h2.772v12.509h-2.342M118.82 10.938c-1.3 0-2.239.364-2.817 1.092-.578.728-.867 1.724-.867 2.988 0 .613.071 1.17.214 1.67.143.498.358.928.644 1.29.286.36.644.64 1.073.84.43.198.93.297 1.502.297.31 0 .575-.006.796-.018.22-.012.414-.036.581-.072v-4.35h2.79v6.19c-.334.133-.87.275-1.61.425-.739.15-1.65.226-2.736.226-.93 0-1.773-.145-2.53-.434a5.289 5.289 0 0 1-1.94-1.263c-.537-.554-.951-1.234-1.243-2.04-.293-.806-.438-1.726-.438-2.761 0-1.047.16-1.974.483-2.78.321-.806.762-1.49 1.323-2.05a5.57 5.57 0 0 1 1.976-1.272 6.735 6.735 0 0 1 2.423-.433 9.736 9.736 0 0 1 2.798.388 5.547 5.547 0 0 1 1.315.569l-.804 2.256a7.283 7.283 0 0 0-1.315-.532 5.545 5.545 0 0 0-1.619-.226M126.64 21.28V8.773h8.369v2.365h-5.58v2.454h4.954v2.31h-4.954v3.015h5.992v2.365zM142.579 11.028c-.203 0-.385.006-.546.018l-.456.036v3.394h.787c1.049 0 1.8-.132 2.253-.397.454-.264.68-.716.68-1.354 0-.614-.23-1.05-.689-1.31-.459-.257-1.135-.387-2.03-.387m-.16-2.4c1.86 0 3.284.333 4.274 1.001.99.668 1.484 1.706 1.484 3.114 0 .878-.2 1.592-.599 2.14-.399.546-.974.977-1.726 1.29.251.313.513.67.787 1.074.274.403.546.824.814 1.263.268.44.528.897.778 1.372.25.476.483.942.697 1.399h-3.119c-.227-.41-.458-.824-.69-1.246a33.073 33.073 0 0 0-1.445-2.355 12.5 12.5 0 0 0-.719-.966h-1.377v4.567h-2.79V8.952c.608-.12 1.237-.204 1.887-.252.65-.049 1.23-.073 1.744-.073M0 14.046V.001l7.042 3.78v6.328l9.321.004 7.156 3.933H0zm18.27-5.095V0l7.23 3.686v9.494l-7.23-4.23zm0 17.167v-6.274l-9.394-.006c.009.041-7.274-3.996-7.274-3.996l23.899.113V30l-7.232-3.882zm-18.27 0v-9.179l7.042 4.13v8.734L0 26.118z"/>
    </g>
</svg>
