<svg xmlns="http://www.w3.org/2000/svg" width="120" height="24" viewBox="0 0 120 24">
    <g fill="#6747C7" fill-rule="nonzero">
        <path d="M36.093 7.008h2.26V17.02h-2.26v-4.248h-3.795v4.248h-2.26V7.008h2.26v3.828h3.795zM43.673 11.943c0 .493.06.938.18 1.334.12.397.293.737.519 1.022.225.286.501.505.828.66.326.155.7.232 1.123.232.412 0 .785-.077 1.116-.232.33-.155.61-.374.835-.66.225-.285.399-.625.519-1.022.12-.396.18-.841.18-1.334 0-.493-.06-.94-.18-1.341a3.052 3.052 0 0 0-.52-1.03 2.277 2.277 0 0 0-.834-.66 2.608 2.608 0 0 0-1.116-.231c-.423 0-.797.08-1.123.239-.327.16-.603.382-.828.667a3.044 3.044 0 0 0-.52 1.03c-.12.4-.179.843-.179 1.326zm7.618 0c0 .86-.128 1.617-.381 2.269-.255.653-.603 1.199-1.045 1.638-.441.44-.967.771-1.577.994a5.686 5.686 0 0 1-1.965.333 5.541 5.541 0 0 1-1.93-.333 4.425 4.425 0 0 1-1.584-.994 4.642 4.642 0 0 1-1.066-1.638c-.259-.652-.389-1.409-.389-2.269 0-.86.135-1.617.404-2.269a4.832 4.832 0 0 1 1.087-1.646 4.464 4.464 0 0 1 1.584-1 5.398 5.398 0 0 1 1.894-.334c.681 0 1.324.111 1.93.334a4.386 4.386 0 0 1 1.583 1c.452.445.807.993 1.066 1.646.26.652.389 1.409.389 2.27zM56.94 15.249a3.2 3.2 0 0 0 .785-.08c.206-.053.372-.125.496-.218a.726.726 0 0 0 .26-.325c.048-.126.072-.266.072-.42 0-.33-.154-.603-.461-.82-.307-.218-.835-.452-1.584-.704a11.788 11.788 0 0 1-.98-.398 3.595 3.595 0 0 1-.878-.566 2.7 2.7 0 0 1-.633-.826c-.164-.324-.245-.718-.245-1.182 0-.464.086-.882.259-1.254.173-.372.418-.689.735-.95.316-.261.7-.461 1.151-.602.452-.14.96-.21 1.527-.21.672 0 1.253.073 1.743.218.489.145.892.304 1.209.478l-.648 1.784a6.158 6.158 0 0 0-.929-.385c-.34-.11-.751-.167-1.23-.167-.539 0-.925.076-1.16.225-.236.15-.353.38-.353.689 0 .184.043.339.13.464.086.126.208.24.367.34.158.102.34.194.547.276.206.083.434.167.684.254.518.193.97.384 1.354.573.384.188.703.408.957.66.255.25.444.546.57.884.124.339.186.75.186 1.232 0 .938-.326 1.665-.98 2.182-.652.518-1.636.777-2.951.777a7.751 7.751 0 0 1-2.138-.276 5.395 5.395 0 0 1-1.203-.493l.634-1.798a5.57 5.57 0 0 0 1.101.442c.437.13.972.196 1.606.196M70.768 6.926v1.929h-3.01v8.12h-2.246v-8.12h-3.01V6.926zM73.264 16.975h2.246V6.926h-2.246zM85.566 16.974a50.6 50.6 0 0 0-2.088-3.407 34.702 34.702 0 0 0-2.39-3.175v6.582H78.87V6.926h1.829c.316.32.667.71 1.05 1.175.385.464.776.96 1.174 1.486.399.527.795 1.073 1.188 1.638.394.566.764 1.11 1.11 1.631v-5.93h2.232v10.048h-1.887M95.679 8.666c-1.046 0-1.802.293-2.268.877-.466.585-.698 1.385-.698 2.4 0 .493.057.94.172 1.341.116.401.289.747.519 1.037.23.29.518.515.864.674.346.16.748.24 1.21.24.249 0 .463-.006.64-.015.178-.01.334-.029.468-.058v-3.494h2.247v4.973c-.27.106-.7.22-1.296.34-.595.121-1.33.182-2.204.182-.748 0-1.428-.116-2.037-.348a4.26 4.26 0 0 1-1.563-1.015 4.54 4.54 0 0 1-1-1.639c-.236-.647-.353-1.386-.353-2.218 0-.84.13-1.585.389-2.233a4.803 4.803 0 0 1 1.065-1.646c.452-.45.982-.79 1.591-1.022a5.436 5.436 0 0 1 1.952-.348 7.859 7.859 0 0 1 2.253.312 4.474 4.474 0 0 1 1.059.457l-.648 1.812a5.873 5.873 0 0 0-1.058-.428 4.475 4.475 0 0 0-1.304-.18M101.976 16.974V6.926h6.74v1.9h-4.493v1.971h3.989v1.857h-3.99v2.421h4.825v1.9zM114.811 8.739c-.163 0-.31.005-.44.014l-.366.03v2.725h.633c.845 0 1.45-.106 1.815-.319.365-.212.547-.575.547-1.087 0-.494-.185-.843-.555-1.052-.37-.207-.914-.311-1.634-.311m-.13-1.929c1.498 0 2.645.268 3.442.805.797.536 1.196 1.37 1.196 2.501 0 .706-.161 1.279-.483 1.718-.321.44-.785.786-1.39 1.037.202.252.413.539.634.863.22.324.44.662.655 1.015.216.353.425.72.627 1.101.201.383.388.757.561 1.124h-2.511c-.183-.328-.37-.662-.557-1a26.559 26.559 0 0 0-1.163-1.892 10.043 10.043 0 0 0-.578-.776h-1.11v3.668h-2.246V7.071c.49-.096.996-.164 1.52-.203.523-.039.99-.058 1.404-.058M0 11.237V0l5.633 3.024v5.063l7.457.004 5.725 3.146H0zM14.615 7.16V0L20.4 2.949v7.595L14.615 7.16zm0 13.734v-5.019l-7.514-.005c.007.033-5.82-3.197-5.82-3.197l19.119.09V24l-5.785-3.106zM0 20.894v-7.343l5.633 3.304v6.988L0 20.894z"/>
    </g>
</svg>
